<?xml version="1.0" encoding="UTF-8" standalone="no"?>
<!-- Created with Inkscape (http://www.inkscape.org/) -->

<svg
   xmlns:dc="http://purl.org/dc/elements/1.1/"
   xmlns:cc="http://creativecommons.org/ns#"
   xmlns:rdf="http://www.w3.org/1999/02/22-rdf-syntax-ns#"
   xmlns:svg="http://www.w3.org/2000/svg"
   xmlns="http://www.w3.org/2000/svg"
   xmlns:xlink="http://www.w3.org/1999/xlink"
   xmlns:sodipodi="http://sodipodi.sourceforge.net/DTD/sodipodi-0.dtd"
   xmlns:inkscape="http://www.inkscape.org/namespaces/inkscape"
   id="svg2"
   version="1.1"
   inkscape:version="0.92.3 (2405546, 2018-03-11)"
   width="80"
   height="80"
   viewBox="0 0 80 80"
   sodipodi:docname="icon.svg"
   inkscape:export-filename="icon.png"
   inkscape:export-xdpi="153.60001"
   inkscape:export-ydpi="153.60001">
  <metadata
     id="metadata8">
    <rdf:RDF>
      <cc:Work
         rdf:about="">
        <dc:format>image/svg+xml</dc:format>
        <dc:type
           rdf:resource="http://purl.org/dc/dcmitype/StillImage" />
        <dc:title></dc:title>
      </cc:Work>
    </rdf:RDF>
  </metadata>
  <defs
     id="defs6">
    <path
       d="M4,5.35309892e-14 C36.4160122,9.87060235e-15 58.0836068,-3.97961823e-14 65,5.07020818e-14 C69,6.733808e-14 70,1 70,5 C70,43.0488877 70,62.4235458 70,65 C70,69 69,70 65,70 C61,70 9,70 4,70 C1,70 7.10542736e-15,69 7.10542736e-15,65 C7.25721566e-15,62.4676575 3.83358709e-14,41.8005206 3.60818146e-14,5 C-1.13686838e-13,1 1,5.75716207e-14 4,5.35309892e-14 Z"
       id="icon-a" />
    <linearGradient
       y2="70"
       y1="0"
       x2="0"
       x1="70"
       id="icon-c"
       gradientUnits="userSpaceOnUse"
       gradientTransform="matrix(1.1428571,0,0,1.14289,3.0762409e-6,-0.00229907)">
      <stop
         id="stop26"
         stop-color="#269396"
         offset="0%" />
      <stop
         id="stop28"
         stop-color="#218689"
         offset="100%" />
    </linearGradient>
    <path
       d="M35.5,22.75 C39.6529297,22.75 43.0195312,26.1166016 43.0195312,30.2695312 C43.0195312,34.4224609 39.6529297,37.7890625 35.5,37.7890625 C31.3470703,37.7890625 27.9804687,34.4224609 27.9804687,30.2695312 C27.9804687,26.1166016 31.3470703,22.75 35.5,22.75 Z M43.6256055,38.3165755 L40.7623112,37.6007161 C37.2411654,40.1333659 32.9730794,39.5681836 30.2377604,37.6007161 L27.3744661,38.3165755 C25.0790039,38.8904232 23.46875,40.9527799 23.46875,43.3188542 L23.46875,47.671875 C23.46875,49.0957161 24.6230339,50.25 26.046875,50.25 L44.953125,50.25 C46.3769661,50.25 47.53125,49.0957161 47.53125,47.671875 L47.53125,43.3188542 C47.53125,40.9527799 45.9209961,38.8904232 43.6256055,38.3165755 Z M50.3958333,39.6510417 C53.1644531,39.6510417 55.4088542,37.4066406 55.4088542,34.6380208 C55.4088542,31.869401 53.1644531,29.625 50.3958333,29.625 C47.6272135,29.625 45.3828125,31.869401 45.3828125,34.6380208 C45.3828125,37.4066406 47.6272135,39.6510417 50.3958333,39.6510417 Z M20.6041667,39.6510417 C23.3727865,39.6510417 25.6171875,37.4066406 25.6171875,34.6380208 C25.6171875,31.869401 23.3727865,29.625 20.6041667,29.625 C17.8355469,29.625 15.5911458,31.869401 15.5911458,34.6380208 C15.5911458,37.4066406 17.8355469,39.6510417 20.6041667,39.6510417 Z M22.3229167,47.671875 L22.3229167,43.3188542 C22.3229167,42.1335612 22.6518424,41.0125781 23.2326367,40.0533008 C21.0850586,41.1074674 18.6968555,40.6769206 17.0959831,39.5255013 L15.1870964,40.0027409 C13.6568359,40.3852344 12.5833333,41.7602344 12.5833333,43.3375456 L12.5833333,46.2395833 C12.5833333,47.1888346 13.352832,47.9583333 14.3020833,47.9583333 L22.3350195,47.9583333 C22.3273388,47.8630362 22.3233016,47.7674804 22.3229167,47.671875 Z M55.8129036,40.0026693 L53.9040169,39.5254297 C51.9041797,40.9638802 49.5434049,40.902793 47.7604883,40.0423437 C48.3454362,41.004056 48.6770833,42.1289779 48.6770833,43.3188542 L48.6770833,47.671875 C48.6770833,47.7683398 48.6722135,47.8636589 48.6649805,47.9583333 L56.6979167,47.9583333 C57.647168,47.9583333 58.4166667,47.1888346 58.4166667,46.2395833 L58.4166667,43.3375456 C58.4166667,41.7602344 57.3431641,40.3852344 55.8129036,40.0026693 Z"
       id="icon-d" />
    <path
       d="M35.5,20.75 C39.6529297,20.75 43.0195312,24.1166016 43.0195312,28.2695312 C43.0195312,32.4224609 39.6529297,35.7890625 35.5,35.7890625 C31.3470703,35.7890625 27.9804687,32.4224609 27.9804687,28.2695312 C27.9804687,24.1166016 31.3470703,20.75 35.5,20.75 Z M43.6256055,36.3165755 L40.7623112,35.6007161 C37.2411654,38.1333659 32.9730794,37.5681836 30.2377604,35.6007161 L27.3744661,36.3165755 C25.0790039,36.8904232 23.46875,38.9527799 23.46875,41.3188542 L23.46875,45.671875 C23.46875,47.0957161 24.6230339,48.25 26.046875,48.25 L44.953125,48.25 C46.3769661,48.25 47.53125,47.0957161 47.53125,45.671875 L47.53125,41.3188542 C47.53125,38.9527799 45.9209961,36.8904232 43.6256055,36.3165755 Z M50.3958333,37.6510417 C53.1644531,37.6510417 55.4088542,35.4066406 55.4088542,32.6380208 C55.4088542,29.869401 53.1644531,27.625 50.3958333,27.625 C47.6272135,27.625 45.3828125,29.869401 45.3828125,32.6380208 C45.3828125,35.4066406 47.6272135,37.6510417 50.3958333,37.6510417 Z M20.6041667,37.6510417 C23.3727865,37.6510417 25.6171875,35.4066406 25.6171875,32.6380208 C25.6171875,29.869401 23.3727865,27.625 20.6041667,27.625 C17.8355469,27.625 15.5911458,29.869401 15.5911458,32.6380208 C15.5911458,35.4066406 17.8355469,37.6510417 20.6041667,37.6510417 Z M22.3229167,45.671875 L22.3229167,41.3188542 C22.3229167,40.1335612 22.6518424,39.0125781 23.2326367,38.0533008 C21.0850586,39.1074674 18.6968555,38.6769206 17.0959831,37.5255013 L15.1870964,38.0027409 C13.6568359,38.3852344 12.5833333,39.7602344 12.5833333,41.3375456 L12.5833333,44.2395833 C12.5833333,45.1888346 13.352832,45.9583333 14.3020833,45.9583333 L22.3350195,45.9583333 C22.3273388,45.8630362 22.3233016,45.7674804 22.3229167,45.671875 Z M55.8129036,38.0026693 L53.9040169,37.5254297 C51.9041797,38.9638802 49.5434049,38.902793 47.7604883,38.0423437 C48.3454362,39.004056 48.6770833,40.1289779 48.6770833,41.3188542 L48.6770833,45.671875 C48.6770833,45.7683398 48.6722135,45.8636589 48.6649805,45.9583333 L56.6979167,45.9583333 C57.647168,45.9583333 58.4166667,45.1888346 58.4166667,44.2395833 L58.4166667,41.3375456 C58.4166667,39.7602344 57.3431641,38.3852344 55.8129036,38.0026693 Z"
       id="icon-e" />
    <mask
       id="icon-b"
       fill="#fff">
      <use
         height="100%"
         width="100%"
         y="0"
         x="0"
         xlink:href="#icon-a"
         id="use35" />
    </mask>
  </defs>
  <sodipodi:namedview
     pagecolor="#ffffff"
     bordercolor="#666666"
     borderopacity="1"
     objecttolerance="10"
     gridtolerance="10"
     guidetolerance="10"
     inkscape:pageopacity="0"
     inkscape:pageshadow="2"
     inkscape:window-width="2493"
     inkscape:window-height="1025"
     id="namedview4"
     showgrid="false"
     inkscape:zoom="10.40892"
     inkscape:cx="40.000006"
     inkscape:cy="38.691579"
     inkscape:window-x="67"
     inkscape:window-y="27"
     inkscape:window-maximized="1"
     inkscape:current-layer="svg2"
     showguides="true"
     inkscape:guide-bbox="true">
    <sodipodi:guide
       position="17.8133,23.599813"
       orientation="-0.70710678,0.70710678"
       id="guide988"
       inkscape:locked="false" />
    <sodipodi:guide
       position="51.906976,7.8139534"
       orientation="-0.70710678,0.70710678"
       id="guide990"
       inkscape:locked="false" />
    <sodipodi:guide
       position="16.089905,35.030414"
       orientation="-0.70710678,0.70710678"
       id="guide992"
       inkscape:locked="false" />
    <sodipodi:guide
       position="65.674418,30.232558"
       orientation="-0.70710678,0.70710678"
       id="guide994"
       inkscape:locked="false" />
    <sodipodi:guide
       position="42.883721,28.930232"
       orientation="-0.70710678,0.70710678"
       id="guide996"
       inkscape:locked="false" />
    <sodipodi:guide
       position="32.093023,35.069767"
       orientation="-0.70710678,0.70710678"
       id="guide998"
       inkscape:locked="false" />
    <sodipodi:guide
       position="60.393722,23.599813"
       orientation="-0.70710678,0.70710678"
       id="guide1000"
       inkscape:locked="false" />
  </sodipodi:namedview>
  <rect
     id="rect38"
     height="80.002304"
     width="80"
     x="6.8753479e-06"
     y="-0.0022990874"
     style="fill:#e3da70;fill-rule:evenodd;stroke-width:1.14287353;fill-opacity:1" />
  <path
     id="path40"
     d="M 4.5714315,1.3675228 H 74.285715 c 3.047619,0 4.95238,0.7597341 5.714285,2.2792022 l 8e-6,-3.64902409 H 6.8753479e-6 L 3.0762409e-6,3.646725 C 0.76190819,2.1272569 2.2857173,1.3675228 4.5714315,1.3675228 Z"
     inkscape:connector-curvature="0"
     style="fill:#ffffff;fill-opacity:0.38299997;fill-rule:evenodd;stroke-width:1.14122796"
     sodipodi:nodetypes="ssccccs" />
  <path
     id="path42"
     d="M 44.259137,79.833886 4.5714315,79.999999 C 2.2857373,80.009566 3.0762409e-6,79.830121 3.0762409e-6,75.243403 L 0.00260894,61.056882 16.089905,44.969586 l 6.56982,-0.983101 1.406989,5.589387 -4.39312,-4.133187 3.085986,3.955753 5.91917,-1.053932 4.251482,-4.251482 1.040064,5.120048 12.448308,-1.585165 2.292636,-2.071125 8.524376,4.018131 5.868906,2.762425 -4.313825,4.313825 1.603025,-0.250976 -2.297335,2.297335 -4.421969,11.721083 z"
     inkscape:connector-curvature="0"
     style="opacity:0.32400004;fill:#393939;fill-rule:evenodd;stroke-width:1.14122796"
     sodipodi:nodetypes="csscccccccccccccccccc" />
  <path
     id="path44"
     d="M 4.5714315,78.860398 H 74.285715 c 3.047619,0 4.95238,-1.139601 5.714285,-3.418803 0,3.038936 0,4.558404 0,4.558404 H 3.0762409e-6 c 0,0 0,-1.519468 0,-4.558404 C 0.76190819,77.720797 2.2857173,78.860398 4.5714315,78.860398 Z"
     inkscape:connector-curvature="0"
     style="fill:#000000;fill-opacity:0.38299997;fill-rule:evenodd;stroke-width:1.14122796" />
  <path
     style="fill:#000000;fill-opacity:0.29803922;stroke:none;stroke-width:0.07507458;stroke-opacity:0.29803922"
     d="M 45.765625 42.720703 C 32.287432 42.720703 17.801576 51.634791 13.441406 62.667969 C 9.0812358 73.701146 16.519854 82.61914 29.998047 82.619141 C 43.476239 82.619141 57.966002 73.701146 62.326172 62.667969 C 66.686342 51.634791 59.243817 42.720703 45.765625 42.720703 z M 45.570312 43.212891 C 53.714466 43.212891 59.582886 46.523234 61.904297 51.570312 C 61.398247 51.160433 60.690358 50.90625 59.830078 50.90625 L 53.175781 50.90625 L 54.462891 47.652344 C 55.14852 45.917396 53.884877 44.400391 51.755859 44.400391 L 38.449219 44.400391 C 36.320202 44.400391 33.857505 45.917396 33.171875 47.652344 L 31.886719 50.90625 L 25.232422 50.90625 C 24.383852 50.90625 23.486977 51.152801 22.666016 51.552734 C 28.973645 46.518064 37.438017 43.212891 45.570312 43.212891 z M 38.066406 48.736328 L 48.710938 48.736328 L 47.853516 50.90625 L 37.208984 50.90625 L 38.066406 48.736328 z M 62.650391 53.726562 C 63.299314 56.405964 63.068656 59.444854 61.794922 62.667969 C 60.538701 65.846769 58.397834 68.841767 55.685547 71.494141 L 59.537109 61.748047 L 43.568359 61.748047 L 42.283203 65.001953 C 42.046447 65.601052 41.258613 66.085937 40.523438 66.085938 L 32.541016 66.085938 C 31.80584 66.085938 31.401916 65.601052 31.638672 65.001953 L 32.923828 61.748047 L 16.957031 61.748047 L 13.099609 71.507812 C 13.096965 71.514505 13.096337 71.520658 13.09375 71.527344 C 12.469692 68.868226 12.710133 65.857775 13.970703 62.667969 C 15.241904 59.451263 17.415059 56.423561 20.173828 53.748047 C 20.096569 53.884401 20.010347 54.018349 19.955078 54.158203 L 17.8125 59.580078 L 60.394531 59.580078 L 62.537109 54.158203 C 62.59519 54.011234 62.619618 53.869628 62.650391 53.726562 z M 14.152344 74.365234 C 14.608517 74.608194 15.160956 74.761719 15.806641 74.761719 L 50.402344 74.761719 C 51.024399 74.761719 51.672436 74.619313 52.298828 74.392578 C 46.084371 79.078664 37.989177 82.125 30.193359 82.125 C 22.37482 82.125 16.651616 79.074639 14.152344 74.365234 z "
     id="path1002" />
  <path
     style="fill:#ffffff;stroke-width:0.07507458"
     d="M 45.767578 39.541016 C 32.289385 39.541016 17.799624 48.457056 13.439453 59.490234 C 9.0792829 70.523412 16.521807 79.4375 30 79.4375 C 43.478193 79.4375 57.964049 70.523412 62.324219 59.490234 C 66.68439 48.457056 59.245771 39.541016 45.767578 39.541016 z M 45.572266 40.033203 C 53.716386 40.033203 59.582867 43.345535 61.904297 48.392578 C 61.398191 47.982191 60.690953 47.724609 59.830078 47.724609 L 53.175781 47.724609 L 54.462891 44.472656 C 55.14852 42.737708 53.884877 41.21875 51.755859 41.21875 L 38.449219 41.21875 C 36.320202 41.21875 33.857505 42.737708 33.171875 44.472656 L 31.886719 47.724609 L 25.232422 47.724609 C 24.387098 47.724609 23.494215 47.971947 22.675781 48.369141 C 28.982491 43.338429 37.443755 40.033203 45.572266 40.033203 z M 38.066406 45.556641 L 48.710938 45.556641 L 47.853516 47.724609 L 37.208984 47.724609 L 38.066406 45.556641 z M 62.650391 50.544922 C 63.300165 53.225009 63.069103 56.265988 61.794922 59.490234 C 60.538128 62.670485 58.397565 65.665321 55.683594 68.318359 L 59.537109 58.568359 L 43.568359 58.568359 L 42.283203 61.822266 C 42.046447 62.421365 41.258613 62.90625 40.523438 62.90625 L 32.541016 62.90625 C 31.80584 62.90625 31.401916 62.421365 31.638672 61.822266 L 32.923828 58.568359 L 16.957031 58.568359 L 13.099609 68.328125 C 13.097274 68.334034 13.097993 68.339799 13.095703 68.345703 C 12.472309 65.687433 12.710534 62.679024 13.970703 59.490234 C 15.241016 56.275775 17.413915 53.248368 20.169922 50.574219 C 20.094367 50.708268 20.009384 50.841099 19.955078 50.978516 L 17.8125 56.400391 L 60.394531 56.400391 L 62.537109 50.978516 C 62.595269 50.831347 62.619613 50.688176 62.650391 50.544922 z M 14.154297 71.185547 C 14.610207 71.428007 15.161674 71.580078 15.806641 71.580078 L 50.402344 71.580078 C 51.024966 71.580078 51.673862 71.44001 52.300781 71.212891 C 46.086437 75.898762 37.991426 78.943359 30.195312 78.943359 C 22.377207 78.943359 16.653993 75.893988 14.154297 71.185547 z "
     id="path958" />
  <g
     id="g954">
    <use
       transform="matrix(1.1428571,0,0,1.1396011,119.06977,11.576759)"
       height="100%"
       width="100%"
       y="0"
       x="0"
       style="opacity:0.3;fill:#000000;fill-rule:nonzero"
       xlink:href="#icon-d"
       id="use46" />
    <use
       transform="matrix(1.1428571,0,0,1.1396011,119.06977,11.576759)"
       height="100%"
       width="100%"
       y="0"
       x="0"
       style="fill:#ffffff;fill-rule:nonzero"
       xlink:href="#icon-e"
       id="use48" />
  </g>
  <path
     style="fill:#000000;fill-opacity:0.29803922;stroke-width:0.09594429"
     inkscape:connector-curvature="0"
     d="m 59.937408,39.011901 c -2.403405,1.950547 -5.049549,3.567209 -7.919242,4.706067 l 5.21745,9.036994 5.176195,2.210556 c 0.941214,0.402007 2.004277,-0.212037 2.127085,-1.228087 l 0.673529,-5.588755 z m 4.076673,-9.072493 c 0.466289,-0.735893 0.181335,-1.726038 -0.580463,-2.148193 l -2.693156,-1.493853 c -0.717664,-0.398168 -1.593635,-0.140078 -2.039776,0.548802 -3.94427,6.095341 -10.733289,9.822777 -18.049042,9.822777 -2.295947,0 -4.531449,-0.407763 -6.659493,-1.106238 l 6.462808,-11.19478 c 0.06716,0.0019 0.128565,0.02015 0.195726,0.02015 0.06716,0 0.129525,-0.01823 0.195726,-0.02015 l 4.901794,8.49107 c 2.996341,-0.859661 5.714443,-2.470566 7.925959,-4.693595 l -4.968955,-8.607163 c 0.714785,-1.307721 1.157088,-2.785263 1.157088,-4.380816 0,-5.086967 -4.123686,-9.2106533 -9.210653,-9.2106533 -5.086966,0 -9.210652,4.1236863 -9.210652,9.2106533 0,1.595553 0.442303,3.073095 1.156129,4.380816 l -6.552995,11.35117 C 24.840025,29.795491 23.7453,28.550134 22.812722,27.167577 22.353148,26.486373 21.47238,26.244593 20.761433,26.656194 l -2.662455,1.541825 c -0.753162,0.435587 -1.019887,1.42957 -0.541125,2.155868 1.493852,2.268123 3.328307,4.241698 5.370961,5.950466 l -6.838909,11.845282 0.673529,5.588756 c 0.122808,1.01605 1.185871,1.630093 2.127085,1.228087 l 5.176195,-2.210557 6.792856,-11.765649 c 3.088446,1.174358 6.397565,1.819104 9.792074,1.819104 9.503283,0 18.313848,-4.894119 23.362437,-12.869968 z M 40.651644,12.107201 c 1.695336,0 3.070218,1.374882 3.070218,3.070218 0,1.695335 -1.374882,3.070217 -3.070218,3.070217 -1.695335,0 -3.070217,-1.374882 -3.070217,-3.070217 0,-1.695336 1.374882,-3.070218 3.070217,-3.070218 z"
     id="path1008" />
  <path
     id="path971"
     d="m 59.937408,35.831852 c -2.403405,1.950547 -5.049549,3.567209 -7.919242,4.706067 l 5.21745,9.036994 5.176195,2.210556 c 0.941214,0.402007 2.004277,-0.212037 2.127085,-1.228087 l 0.673529,-5.588755 z m 4.076673,-9.072493 c 0.466289,-0.735893 0.181335,-1.726038 -0.580463,-2.148193 l -2.693156,-1.493853 c -0.717664,-0.398168 -1.593635,-0.140078 -2.039776,0.548802 -3.94427,6.095341 -10.733289,9.822777 -18.049042,9.822777 -2.295947,0 -4.531449,-0.407763 -6.659493,-1.106238 l 6.462808,-11.19478 c 0.06716,0.0019 0.128565,0.02015 0.195726,0.02015 0.06716,0 0.129525,-0.01823 0.195726,-0.02015 l 4.901794,8.49107 c 2.996341,-0.859661 5.714443,-2.470566 7.925959,-4.693595 l -4.968955,-8.607163 c 0.714785,-1.307721 1.157088,-2.785263 1.157088,-4.380816 0,-5.0869673 -4.123686,-9.2106533 -9.210653,-9.2106533 -5.086966,0 -9.210652,4.123686 -9.210652,9.2106533 0,1.595553 0.442303,3.073095 1.156129,4.380816 l -6.552995,11.35117 C 24.840025,26.615442 23.7453,25.370085 22.812722,23.987528 22.353148,23.306324 21.47238,23.064544 20.761433,23.476145 l -2.662455,1.541825 c -0.753162,0.435587 -1.019887,1.42957 -0.541125,2.155868 1.493852,2.268123 3.328307,4.241698 5.370961,5.950466 l -6.838909,11.845282 0.673529,5.588756 c 0.122808,1.01605 1.185871,1.630093 2.127085,1.228087 l 5.176195,-2.210557 6.792856,-11.765649 c 3.088446,1.174358 6.397565,1.819104 9.792074,1.819104 9.503283,0 18.313848,-4.894119 23.362437,-12.869968 z M 40.651644,8.9271517 c 1.695336,0 3.070218,1.3748823 3.070218,3.0702183 0,1.695335 -1.374882,3.070217 -3.070218,3.070217 -1.695335,0 -3.070217,-1.374882 -3.070217,-3.070217 0,-1.695336 1.374882,-3.0702183 3.070217,-3.0702183 z"
     inkscape:connector-curvature="0"
     style="fill:#ffffff;stroke-width:0.09594429" />
</svg>
